<?xml version="1.0" encoding="UTF-8"?>
<svg version="1.1" xmlns="http://www.w3.org/2000/svg" width="512" height="512">
<path d="M0 0 C1.06326723 0.00265421 1.06326723 0.00265421 2.14801461 0.00536203 C2.89790758 0.0033094 3.64780055 0.00125677 4.42041755 -0.00085807 C6.9653805 -0.00656999 9.51029005 -0.0050657 12.05525833 -0.0036521 C13.88539531 -0.00623333 15.71553173 -0.00924581 17.54566735 -0.0126555 C22.59991774 -0.0207571 27.65415396 -0.02251682 32.70841008 -0.02325296 C38.14954074 -0.02509804 43.59066394 -0.03264257 49.03179032 -0.03938818 C60.94064265 -0.05299423 72.84949162 -0.05899969 84.75835043 -0.06339884 C92.18760331 -0.06615731 99.61685488 -0.07039392 107.04610687 -0.07490301 C127.59645814 -0.08709842 148.14680836 -0.09739734 168.69716316 -0.1007781 C170.01349275 -0.10099767 171.32982234 -0.10121724 172.68604071 -0.10144345 C174.00560314 -0.10166173 175.32516557 -0.10188001 176.68471473 -0.1021049 C179.35885793 -0.10254746 182.03300113 -0.10299458 184.70714432 -0.10344458 C185.37017931 -0.10355397 186.0332143 -0.10366336 186.71634127 -0.10377606 C208.22350779 -0.10740807 229.73064064 -0.12333275 251.23779427 -0.14663494 C273.9608667 -0.17120965 296.68392072 -0.1849431 319.40700692 -0.18614602 C331.79989651 -0.18706455 344.19274202 -0.19286156 356.58561951 -0.21096563 C367.13630607 -0.22632372 377.68693492 -0.23151257 388.23763053 -0.22322753 C393.62526154 -0.2193058 399.01277619 -0.22032442 404.40039307 -0.23428488 C409.3264044 -0.24693302 414.25221086 -0.24590707 419.17822154 -0.23369417 C420.96625666 -0.23172128 422.75430585 -0.23488807 424.54232113 -0.24353853 C426.96139158 -0.25450685 429.37972291 -0.24723302 431.79877144 -0.235147 C432.50293393 -0.24274219 433.20709642 -0.25033739 433.93259716 -0.25816274 C436.75654204 -0.22742458 438.64696839 -0.18220848 440.99301308 1.47253585 C446.21567838 9.32977299 442.46753062 22.80244656 441.57636124 31.7126565 C441.4104445 33.40386827 441.24490236 35.09511683 441.07970119 36.78639865 C440.62592501 41.42005911 440.16659236 46.05315417 439.70626682 50.68616796 C439.2102378 55.68789328 438.71923719 60.69011279 438.22743851 65.6922555 C437.03983301 77.75896668 435.84347865 89.82480406 434.64556965 101.89049613 C434.30734383 105.29780083 433.96935006 108.70512846 433.63143951 112.11246443 C431.53272585 133.27472973 429.43119145 154.43671279 427.32108647 175.59784555 C426.83295734 180.49347327 426.34485663 185.38910382 425.85680252 190.28473902 C425.73549887 191.50149939 425.61419522 192.71825977 425.48921569 193.97189167 C423.5217537 213.71204024 421.57263933 233.45395613 419.63097642 253.19665727 C417.6372634 273.46540362 415.62683442 293.73243737 413.6000278 313.99790168 C412.46241505 325.3768881 411.33227704 336.75651118 410.22091728 348.13809443 C409.27516876 357.8232142 408.31441771 367.50669423 407.33377961 377.1883463 C406.8337567 382.12965297 406.34105981 387.07140934 405.86765343 392.01534319 C405.43436792 396.53852097 404.98069719 401.05916423 404.51050844 405.57865062 C404.34380763 407.21631196 404.18468354 408.8547654 404.0337979 410.49395952 C403.82793548 412.7183562 403.59490697 414.93826507 403.3547855 417.15918589 C403.170811 419.01268738 403.170811 419.01268738 402.98311985 420.90363336 C401.89075608 424.89937965 400.25717572 426.51999017 397.09923416 429.1367898 C394.24906021 430.58140039 394.24906021 430.58140039 391.06481034 431.75446558 C389.85345413 432.20848749 388.64209793 432.6625094 387.39403397 433.13028955 C386.06016929 433.61444486 384.72622286 434.09837498 383.39220291 434.5821023 C381.98106027 435.1054168 380.57038628 435.6299965 379.16014725 436.15574121 C376.12933289 437.28270872 373.09552517 438.40104068 370.05904251 439.51264429 C365.24369467 441.27549325 360.43524149 443.05661644 355.62779862 444.84089136 C350.60585373 446.70370976 345.58337036 448.5650195 340.55838639 450.41962671 C328.68342901 454.80249873 316.8235517 459.2241416 304.97423416 463.6758523 C304.16172007 463.98106428 303.34920597 464.28627626 302.51207024 464.60073709 C298.49524393 466.10977137 294.47864286 467.61940394 290.46217972 469.12940454 C285.88297004 470.85084305 281.3031473 472.57064386 276.72301346 474.28962183 C276.00084106 474.56080521 275.27866865 474.83198858 274.53461224 475.11138964 C271.05730039 476.4166042 267.57882309 477.71851446 264.09744889 479.01285791 C258.48814619 481.1002595 252.89027242 483.2008125 247.34386307 485.45124292 C246.4962088 485.78722498 245.64855454 486.12320704 244.77521378 486.46937037 C243.31502423 487.05062111 241.86132425 487.64881184 240.41873795 488.27247095 C227.24451375 493.44489605 214.39370819 488.9064122 201.77452713 484.60065699 C199.9766038 484.00440451 198.17807746 483.40996779 196.37900406 482.81719446 C191.53225101 481.21425443 186.69458675 479.58540457 181.85842139 477.95084143 C176.78401673 476.24001402 171.70225992 474.5512897 166.62148148 472.85950708 C158.10169816 470.01892114 149.58754056 467.16198293 141.07677323 464.29450464 C131.23904243 460.98010058 121.39374239 457.68905573 111.54387993 454.41089559 C102.05303028 451.2518874 92.56679771 448.07924814 83.08291107 444.89940119 C79.05162382 443.54783874 75.01893673 442.20057857 70.98509461 440.85666132 C66.24192574 439.27552118 61.50297243 437.6823345 56.76702172 436.07970858 C55.02852449 435.49348551 53.28865232 434.9113221 51.54734093 434.33351183 C49.17214241 433.54458047 46.80238262 432.74106863 44.43343216 431.93360376 C43.74258967 431.70790728 43.05174717 431.4822108 42.33997005 431.24967504 C38.30431787 429.85257026 35.82983654 428.41113364 33.09923416 425.1367898 C32.33295125 422.70410806 32.33295125 422.70410806 31.95917565 419.92313337 C31.81173165 418.85474938 31.66428765 417.78636539 31.51237565 416.68560612 C31.37603896 415.51449674 31.23970227 414.34338735 31.09923416 413.1367898 C30.95613808 411.9087656 30.81304199 410.68074139 30.66560966 409.41550434 C30.18713884 405.1323601 29.76361971 400.84416182 29.34017044 396.55529261 C29.17378672 394.899971 29.0070577 393.24468407 28.84001607 391.58942872 C28.38492127 387.06977616 27.93472797 382.54964714 27.48538333 378.02941978 C26.9988325 373.1436845 26.50770439 368.25840902 26.0171724 363.37307215 C25.05824818 353.81549332 24.10357919 344.25749408 23.15043156 334.69933762 C22.37578918 326.93209113 21.59955894 319.16500482 20.8221994 311.3980298 C20.71145593 310.29153225 20.60071246 309.18503469 20.48661313 308.0450069 C20.26162039 305.79706501 20.03662344 303.54912354 19.81162234 301.30118249 C17.7038158 280.24074196 15.60078211 259.17982697 13.49944003 238.1187406 C11.69623613 220.04684678 9.88916325 201.9753433 8.07921463 183.90412378 C5.97650824 162.90986823 3.87602341 141.91539248 1.7792117 120.92054731 C1.55568913 118.68252164 1.33216437 116.44449619 1.10863739 114.20647097 C0.99866296 113.1053517 0.88868852 112.00423243 0.77538153 110.86974591 C0.00014678 103.10920105 -0.77666015 95.34881449 -1.55405945 87.58848619 C-2.50095481 78.13566943 -3.44536197 68.682608 -4.38658388 59.22922458 C-4.86687304 54.40593836 -5.34827023 49.5827696 -5.83266586 44.75989389 C-6.27597086 40.34580775 -6.71607809 35.93141492 -7.15362839 31.51675472 C-7.31252188 29.91930151 -7.47258457 28.32196407 -7.6339304 26.72475668 C-7.85303822 24.553993 -8.06787345 22.3828466 -8.28165764 20.2115531 C-8.402084 19.00561095 -8.52251036 17.79966881 -8.646586 16.55718297 C-9.43530188 5.94375882 -9.43530188 5.94375882 -5.90076584 1.1367898 C-4.23716589 -0.52681014 -2.22247268 0.01050751 0 0 Z M76.34923416 106.3242898 C74.36319657 109.20404431 74.21832469 111.68316458 74.09923416 115.1367898 C75.86014972 119.2146995 77.42097061 120.37809213 81.09923416 123.1367898 C119.37923416 123.1367898 157.65923416 123.1367898 197.09923416 123.1367898 C197.09923416 199.6967898 197.09923416 276.2567898 197.09923416 355.1367898 C171.35923416 348.2067898 171.35923416 348.2067898 145.09923416 341.1367898 C144.43923416 341.1367898 143.77923416 341.1367898 143.09923416 341.1367898 C142.89560257 339.8992898 142.89560257 339.8992898 142.68785721 338.6367898 C141.48804935 331.3577185 140.27752311 324.0806124 139.05039078 316.80610132 C138.4321781 313.13731866 137.82868953 309.46663823 137.23985916 305.7930398 C137.00641344 304.40746624 136.77214914 303.02203013 136.53673416 301.6367898 C136.3498201 300.4921023 136.16290604 299.3474148 135.97032791 298.1680398 C134.55377847 293.23870182 132.35944475 289.97693019 128.09923416 287.1367898 C124.03077719 287.21355314 120.98065481 287.8713265 117.66173416 290.1992898 C114.84284558 293.43069866 114.74365487 294.62024672 114.88378006 298.76124048 C115.30253115 303.37829741 116.22117946 307.88753476 117.14610916 312.4258523 C117.35858292 313.48790888 117.57105667 314.54996546 117.78996903 315.64420557 C118.23993077 317.87887866 118.69400678 320.11272684 119.15196854 322.34577417 C119.84784075 325.75496325 120.52099758 329.16813538 121.19298416 332.5821023 C121.63431527 334.75946524 122.07697866 336.93655865 122.52110916 339.1133523 C122.71920182 340.12910334 122.91729447 341.14485437 123.12138993 342.19138575 C124.25006276 347.5818931 125.28954511 351.96522006 129.09923416 356.1367898 C136.15674265 360.61055017 144.3460779 362.44358472 152.32579666 364.6836648 C153.80227959 365.10346136 155.27862625 365.52373745 156.75484329 365.94446802 C159.83466625 366.8202567 162.91603766 367.6902995 165.99864823 368.55622339 C169.94019943 369.66392095 173.87751866 370.78589132 177.81379753 371.91216135 C180.85600084 372.78091874 183.9003017 373.64212629 186.94528443 374.50108576 C188.39793641 374.91182631 189.84993708 375.32487792 191.30124909 375.74032831 C193.33031013 376.31993416 195.36198217 376.88929825 197.39464432 377.45612574 C198.54743881 377.78159388 199.70023331 378.10706202 200.88796097 378.44239283 C204.11412753 379.1400103 206.81251497 379.42543665 210.09923416 379.1367898 C213.79302555 376.19854665 215.77417118 373.6295904 217.09923416 369.1367898 C217.39174711 365.69734289 217.37321805 362.26932495 217.35993057 358.8191781 C217.36375612 357.76966642 217.36758167 356.72015473 217.37152314 355.63883966 C217.38185459 352.11670266 217.37786067 348.59472862 217.37389237 345.07258081 C217.37823874 342.54958937 217.38342163 340.02659924 217.38938004 337.50361109 C217.40139574 331.35872903 217.40392051 325.21390721 217.40157977 319.06901569 C217.39979673 314.07442516 217.40154597 309.0798479 217.40580422 304.08525896 C217.406697 303.01897188 217.406697 303.01897188 217.40760782 301.93114365 C217.40881957 300.48703671 217.4100337 299.04292977 217.4112502 297.59882282 C217.42212639 284.05628046 217.41996282 270.513763 217.41386535 256.97121923 C217.40869567 244.58246116 217.41995283 232.1937817 217.43896357 219.80503917 C217.45833581 207.08316485 217.46659908 194.36132774 217.46284032 181.63943857 C217.4609274 174.49749806 217.46342471 167.35562448 217.47755486 160.213696 C217.49070576 153.49878572 217.48821702 146.78405848 217.47514397 140.06913996 C217.47277225 137.60283019 217.47553406 135.13650943 217.48376709 132.67021227 C217.49418556 129.30708542 217.48617285 125.9444925 217.47345597 122.58138514 C217.48083025 121.60229907 217.48820454 120.62321301 217.49580228 119.61445767 C217.45405096 114.37655332 217.07995618 110.64440554 214.09923416 106.1367898 C208.72353753 102.04494025 202.47644427 102.72118137 196.02281815 102.76447535 C194.81077713 102.76082468 193.59873612 102.75717402 192.34996659 102.75341272 C189.03790151 102.74671007 185.72640124 102.75339916 182.41439182 102.76674485 C178.94272629 102.7780936 175.47107466 102.77394927 171.99939591 102.77199793 C166.1713794 102.77111615 160.34347947 102.78217193 154.51549393 102.80060816 C147.78304294 102.82178397 141.05076254 102.82528286 134.31828499 102.8190462 C127.83308051 102.81334682 121.34793594 102.81900431 114.8627401 102.83021975 C112.10647651 102.83485713 109.35024966 102.83574333 106.59398323 102.8336339 C102.74467635 102.83139636 98.89553095 102.84587648 95.04625565 102.8621316 C93.33409615 102.85841547 93.33409615 102.85841547 91.58734757 102.85462427 C90.01239014 102.86525148 90.01239014 102.86525148 88.40561539 102.87609339 C87.04152873 102.87917269 87.04152873 102.87917269 85.64988476 102.88231421 C82.11890963 103.23459569 79.2793929 104.3359678 76.34923416 106.3242898 Z M235.81809098 108.99115992 C233.09558379 113.97354116 233.55176506 118.87977188 233.59752518 124.46686792 C233.59212219 125.71777719 233.58671921 126.96868647 233.5811525 128.25750208 C233.57079714 131.6813374 233.57835682 135.10420441 233.59486371 138.52795458 C233.60873419 142.11440771 233.60225186 145.70083221 233.59873062 149.28730249 C233.59603007 155.3096423 233.60949064 161.33178262 233.63268143 167.35407495 C233.65929034 174.31206786 233.66103777 181.26972729 233.64929307 188.22775364 C233.63850566 194.92708484 233.64470986 201.62629566 233.65884835 208.32561731 C233.66459984 211.17400449 233.66453208 214.02230333 233.65978295 216.87069178 C233.65411504 220.84949296 233.67335158 224.82796183 233.69518143 228.80671167 C233.69067978 229.98712534 233.68617813 231.16753901 233.68154007 232.38372278 C233.6914447 233.46879618 233.70134934 234.55386957 233.71155411 235.67182398 C233.71398401 236.61201128 233.7164139 237.55219858 233.71891743 238.52087641 C234.17610219 241.66550724 235.27475965 243.55808062 237.09923416 246.1367898 C240.54376895 248.70650963 244.07245369 248.37826146 248.2545076 248.36384058 C248.96710236 248.36413263 249.67969712 248.36442469 250.41388565 248.36472559 C252.76225197 248.36333557 255.11029847 248.34779002 257.45860916 248.3321023 C259.0895685 248.328371 260.72053008 248.32552458 262.35149246 248.32352686 C266.63903128 248.3158996 270.92643406 248.29625892 275.21391922 248.2741189 C279.59103674 248.25364092 283.96817628 248.24452097 288.34532791 248.23444605 C296.93002567 248.21301215 305.51461299 248.17888718 314.09923416 248.1367898 C313.88299393 249.17013453 313.6667537 250.20347925 313.44396073 251.26813745 C310.19213527 267.05163055 307.43023243 282.92084775 304.67052323 298.79596949 C303.98085989 302.76184264 303.28414575 306.72644372 302.58580261 310.69079638 C302.0435896 313.77517047 301.50598008 316.86033389 300.96966416 319.94573832 C300.7145402 321.40918055 300.45778929 322.87234018 300.19932419 324.33519602 C299.84049158 326.36900273 299.48812761 328.40383176 299.1373201 330.43903589 C298.83564926 332.16723063 298.83564926 332.16723063 298.52788407 333.93033838 C298.11171785 337.04340749 298.02040764 340.00052473 298.09923416 343.1367898 C297.42979782 343.31351725 296.76036148 343.49024469 296.07063919 343.67232752 C289.43123306 345.45040261 282.88530631 347.42206737 276.35704666 349.57038355 C275.38564743 349.88959269 274.4142482 350.20880182 273.41341263 350.53768396 C271.3810425 351.20744811 269.34923733 351.87892892 267.31798416 352.552073 C264.21428761 353.57757627 261.10608806 354.58858845 257.99767166 355.59968042 C256.01300208 356.25569091 254.02861662 356.91256174 252.04454666 357.57038355 C251.12054062 357.86843393 250.19653458 358.16648432 249.24452835 358.47356653 C241.37204851 361.05166378 241.37204851 361.05166378 236.09923416 367.1367898 C235.5989221 370.55250833 235.5989221 370.55250833 236.09923416 374.1367898 C239.3296137 377.36716934 241.82842344 379.01217632 246.36827713 379.45734644 C252.7955584 379.36147206 258.75369264 377.01223105 264.79454666 375.00788355 C266.11382702 374.57586063 267.43323655 374.14423201 268.7527681 373.71297693 C271.50734567 372.80918469 274.25852663 371.89580788 277.00792557 370.97638941 C280.51505921 369.80520897 284.03167794 368.66599936 287.55185753 367.53473806 C290.27671549 366.6537182 292.99440955 365.75204569 295.71055847 364.84457064 C297.62813263 364.2091077 299.55238426 363.59390875 301.47670609 362.97918177 C302.65167649 362.57929544 303.82664688 362.17940912 305.03722245 361.76740503 C306.06566269 361.42765146 307.09410294 361.08789789 308.15370804 360.73784876 C312.88672424 358.1651885 316.09125632 354.9204126 317.9485212 349.79140615 C318.62657813 347.04227609 319.14346891 344.30256666 319.61632401 341.51081324 C319.91024536 339.941075 319.91024536 339.941075 320.21010453 338.33962488 C320.84903767 334.89546364 321.45509143 331.44642072 322.06017166 327.9961648 C322.49828675 325.58840185 322.93814343 323.18095522 323.37966019 320.77381372 C324.29942767 315.73267179 325.20400346 310.68912585 326.09679276 305.64313745 C327.23793288 299.19560435 328.40734174 292.7536259 329.58707863 286.31305552 C330.49598812 281.34207385 331.39439247 276.36924179 332.28922516 271.39570856 C332.7168893 269.02082153 333.14668681 266.6463176 333.57870728 264.27221918 C334.18189389 260.94327278 334.77203747 257.61227063 335.35851151 254.28034449 C335.53610001 253.31165934 335.71368851 252.34297419 335.89665848 251.34493494 C338.2106119 240.05657563 338.2106119 240.05657563 335.34923416 229.5742898 C330.62327495 226.55492697 327.67076683 225.88999141 321.94396073 225.90973902 C321.21988903 225.90949795 320.49581734 225.90925688 319.74980408 225.9090085 C317.41302946 225.91049769 315.07657648 225.92571207 312.73985916 225.9414773 C311.29438546 225.94441896 309.84890964 225.94645865 308.40343338 225.94758081 C303.05200109 225.95805384 297.70061445 225.98597634 292.34923416 226.0117898 C280.38673416 226.0530398 268.42423416 226.0942898 256.09923416 226.1367898 C256.09923416 192.1467898 256.09923416 158.1567898 256.09923416 123.1367898 C282.49923416 123.1367898 308.89923416 123.1367898 336.09923416 123.1367898 C334.11923416 132.3767898 332.13923416 141.6167898 330.09923416 151.1367898 C330.89123612 158.28002758 330.89123612 158.28002758 335.09923416 163.1367898 C338.70368843 164.39051302 340.57091776 164.29528472 344.22423416 163.1992898 C350.1546365 158.94487073 351.81122148 151.48524104 353.45860916 144.65632105 C353.74976609 143.49250154 353.74976609 143.49250154 354.04680496 142.30517054 C354.45112369 140.68025558 354.85087889 139.05419872 355.24620682 137.427073 C355.85088746 134.94249654 356.47197393 132.46244286 357.09532791 129.98249292 C357.48822586 128.39484224 357.88018605 126.80695914 358.27110916 125.21882105 C358.45542496 124.48226786 358.63974076 123.74571466 358.82964188 122.98684168 C359.71069624 119.32860956 360.52427993 115.90278199 360.09923416 112.1367898 C357.82228699 109.85984262 356.08773985 109.29143972 353.09923416 108.1367898 C352.26183197 107.62755472 351.42442978 107.11831964 350.56165177 106.5936532 C345.92253563 104.64167649 341.93213979 104.7240979 336.95055252 104.76447535 C335.94333649 104.76082468 334.93612046 104.75717402 333.89838272 104.75341272 C330.57844144 104.7453254 327.25899098 104.75890166 323.93907791 104.77350855 C321.62792578 104.77402733 319.31677319 104.77350893 317.00562149 104.77199793 C312.16623446 104.77208757 307.32701431 104.78250115 302.4876619 104.80060816 C296.28462567 104.82330753 290.08183294 104.82383617 283.8787666 104.81709051 C279.10812837 104.81374933 274.33754566 104.82038326 269.56691796 104.83021975 C267.27957121 104.83406849 264.99221829 104.83522131 262.70486885 104.8336339 C259.50929989 104.83326307 256.31404331 104.84588825 253.11852127 104.8621316 C252.17344712 104.85965418 251.22837296 104.85717676 250.25466019 104.85462427 C244.42222042 104.90194241 240.47810667 105.20297429 235.81809098 108.99115992 Z " fill="#F0DB4E" transform="translate(36.90076583623886,-0.13678979873657227)"/>
</svg>
